<svg id="Layer_1" data-name="Layer 1" xmlns="http://www.w3.org/2000/svg" viewBox="0 0 2227.82 1475.41"><defs><style>.cls-1,.cls-3{fill:none;}.cls-2{fill:#29679b;}.cls-3{stroke:#29abe2;stroke-linecap:round;stroke-linejoin:round;stroke-width:0;}.cls-4{fill:#29abe2;}.cls-5{fill:#fff;opacity:0.22;}.cls-6{fill:#279fc9;}</style></defs><path class="cls-1" d="M608,822.62c.88-2.77,1.74-5.49,2.55-8.12,6.93-22.49,11.08-39.35,12.78-46.67h0C621.39,776,616.43,796.07,608,822.62Z"/><path class="cls-1" d="M2173.1,25l5.91-2.84L2173.08,25Z"/><path class="cls-1" d="M1052.65,1159.06c-.07.37-.13.74-.2,1.11-.57,3.17-1.13,6.35-1.7,9.53Q1051.7,1164.39,1052.65,1159.06Z"/><path class="cls-2" d="M1370.94,238.35c-111-24.85-406.13-81.74-520.7-105-37.59-7.62-106.32-15.39-144-22.7-4.73-.92-10.69-.94-14.77,1.16-50.79,26.18-101.34,52.83-151.92,79.4-1.7.89-3.15,2.25-5.9,4.26,92.06,68.33,342.93,218.89,411.7,265.89Q1146.28,356.27,1347,250.89Z"/><path class="cls-3" d="M1503.29,780.55q-9.37,16.76-18.73,33.52"/><path class="cls-4" d="M1053.51,1154.2q4.76-26.45,9.43-52.92-5.2,29.46-10.49,58.89c.07-.37.13-.74.2-1.11C1052.94,1157.44,1053.22,1155.82,1053.51,1154.2Z"/><path class="cls-4" d="M1052.45,1160.17q-2.19,12.33-4.43,24.67l2.73-15.14C1051.32,1166.52,1051.88,1163.34,1052.45,1160.17Z"/><path class="cls-4" d="M1027.55,1298.61q-4.32,24-8.59,48,7-39.35,14.1-78.64Q1030.3,1283.31,1027.55,1298.61Z"/><path class="cls-4" d="M280.8,927.6l-31.56-58.17h0a62.66,62.66,0,0,0,.48,9.79c.07.69.16,1.39.28,2.08s.22,1.4.36,2.07.2,1,.32,1.53.16.82.26,1.2.22.94.33,1.39c.44,1.78,1,3.53,1.56,5.28.22.62.46,1.27.7,1.92s.48,1.27.74,1.89.53,1.27.82,1.9.55,1.25.86,1.87l.65,1.34c.22.43.46.84.67,1.27s.39.72.6,1.08c.34.6.67,1.2,1,1.8a72.53,72.53,0,0,0,6.12,8.68c.45.56.91,1.11,1.39,1.64.91,1.05,1.87,2.11,2.88,3.11s2.16,2.16,3.31,3.19,2.23,2,3.4,2.91,2.4,1.87,3.67,2.78l1.13-.55Z"/><path class="cls-4" d="M2173.08,25l5.93-2.84C2141.52,8.53,2102.33,2.78,2062.66,1c-125.57-5.68-246.77,13.77-362.09,65.29-10.2,4.56-20.13,9.77-30.06,15q-149.8,78.53-299.57,157.14L1347,250.89q-200.77,105.33-401.64,210.5-101.11,52.89-202.26,105.7L281.28,809.32c-3.76,3.82-6.69,6.82-9.66,9.77-14.68,14.5-22,32.48-22.38,50.3C542.07,691,1294.45,367.41,1522,241.22,1889.42,37.45,2115.14,24.42,2173.08,25Z"/><path class="cls-5" d="M623.29,767.83h0c.63-2.64.92-4,.92-4L2173,25,624.21,763.79S623.9,765.22,623.29,767.83Z"/><path class="cls-5" d="M249.24,869.39h0l0,0v0Z"/><path class="cls-5" d="M2173,25h0Z"/><path class="cls-4" d="M443.74,849.87l0,0,180.45-86.05L2173,25h0c-57.94-.53-283.66,12.5-651.08,216.27C1294.45,367.41,542.07,691,249.24,869.39v0L280.8,927.6Z"/><path class="cls-5" d="M443.74,849.87l0,0,180.45-86.05L2173,25h0c-57.94-.53-283.66,12.5-651.08,216.27C1294.45,367.41,542.07,691,249.24,869.39v0L280.8,927.6Z"/><path class="cls-4" d="M1078.63,1011.14q-4.77,27.87-9.64,55.7c.72-4.06,1.42-8.13,2.14-12.19Q1074.91,1032.92,1078.63,1011.14Z"/><path class="cls-6" d="M443.74,849.87,280.8,927.6h0l-1.13.55c.75.55,1.52,1.08,2.31,1.61,25,16.62,53.22,20.77,82.65,18.18,3.12-.28,18.5-1.81,39.67-3.93Z"/><path class="cls-6" d="M2188,25.52c-3-1.18-6-2.33-9-3.41L2173.1,25H2173L624.21,763.8s-.29,1.39-.92,4h0c-1.7,7.32-5.85,24.18-12.78,46.67-.81,2.63-1.67,5.35-2.55,8.12-9.42,29.5-23.16,67-41.91,105,6.93-.69,11.22-1.15,11.86-1.22C682.06,914,786.23,901.69,887.5,872.62c63.92-16.69,146.77-51.81,219.18-85.7,5.71-55,10.39-101.44,10.39-101.44l571.63-278-20.44,73.21-8.11,20.87c13.34-18.23,29.48-32,50.83-43.2l1.8-.94c111.1-56.63,221.89-114,331-174.28q11.48-6.33,22.59-13.17c1.37-.84,2.71-1.68,4.06-2.54,1.53-.94,3-1.89,4.53-2.88,1.78-1.13,3.53-2.25,5.28-3.45q.83-.51,1.65-1.08c1.61-1.06,3.19-2.11,4.78-3.22.28-.19.59-.38.88-.59,1.2-.8,2.38-1.61,3.55-2.45,2.11-1.46,4.2-2.93,6.26-4.44a.84.84,0,0,0,.22-.14c2.4-1.73,4.77-3.46,7.12-5.23s4.82-3.62,7.2-5.47c2-1.54,3.93-3.09,5.87-4.65.75-.6,1.49-1.18,2.21-1.8,1.56-1.25,3.12-2.52,4.65-3.82,5.38-4.48,10.65-9.06,15.81-13.81,1.94-1.73,3.84-3.53,5.73-5.3l.29-.27c2.11-2,4.18-4,6.24-6s4.27-4.27,6.38-6.43c1.7-1.75,3.4-3.5,5.08-5.3s3.34-3.57,5-5.37,3.29-3.65,4.9-5.5c1.46-1.63,2.9-3.31,4.34-5,1.22-1.47,2.47-2.93,3.69-4.42.91-1.1,1.85-2.21,2.71-3.33,1.27-1.51,2.5-3.05,3.72-4.61,1.44-1.82,2.85-3.64,4.27-5.51s3-4,4.46-6a191,191,0,0,0,26.55-51.84C2235.31,65.31,2221.56,38.92,2188,25.52Z"/><path class="cls-2" d="M1688.7,407.51l-571.63,278s-4.68,46.39-10.39,101.44c-7.39,70.88-16.55,156.12-19.74,175.26q-3.45,20.8-7,41.55-.63,3.71-1.28,7.41-3.7,21.77-7.5,43.51c-.72,4.06-1.42,8.13-2.14,12.19-.21,1.22-.42,2.44-.64,3.66q-2.7,15.4-5.4,30.78-4.68,26.46-9.44,52.92c-.29,1.62-.57,3.24-.86,4.86q-1,5.32-1.9,10.64l-2.73,15.14q-4.41,24.54-8.84,49.1-2.68,15-5.39,30c-.25,1.35-.49,2.71-.73,4.06q-7.08,39.32-14.1,78.64c-6.21,34.85-12.18,69.73-18.49,104.53-1.32,7.37-3.6,14.56-6,24.23,4.82-1.87,8-2.78,10.81-4.29,50.28-26.39,100.55-52.73,150.61-79.49a32.55,32.55,0,0,0,12.23-12.28q158.36-282.58,316.47-565.28l18.74-33.52,24.53-43.9q60.27-108.09,120.36-216.24c3-5.42,6.17-10.53,9.5-15.32l0,0c.79-1.17,1.6-2.32,2.44-3.47l8.11-20.87Z"/><path class="cls-2" d="M623.29,767.83c.61-2.61.92-4,.92-4L443.76,849.84l0,0L404.3,944l-60.92,145.37c5.64-2.18,8.76-3.09,11.56-4.53q65.44-34,130.77-68.27a43.3,43.3,0,0,0,11.88-9.71c20.81-23.7,41.08-47.9,62.29-71.24,1.1-1.22,4-4.86,6.17-8v0c18.75-38,32.49-75.52,41.91-105C616.43,796.07,621.39,776,623.29,767.83Z"/><path class="cls-2" d="M500.82,607.22c-46.29-9.28-88.72-29.24-131.37-48.31C294.69,525.45,220.38,491,145.86,457c-5.06-2.31-10.17-4.54-15.4-6.89C87.5,472.63,44.76,495.06,0,518.52c94,97.19,187.26,193.61,281.28,290.8L743.13,567.09C667.28,606.67,586.67,624.39,500.82,607.22Z"/></svg>